<?xml version="1.0" standalone="no"?>
<svg version="1.1" id="Layer_2" xmlns="http://www.w3.org/2000/svg" xmlns:xlink="http://www.w3.org/1999/xlink" x="0px" y="0px" viewBox="0 0 2000 2000" enable-background="new 0 0 2000 2000" xml:space="preserve">
<path id="color_x5F_9" fill="#f5a623" d="M1943.1,1039.4v80.5l-905.9,523L56.9,1079.6v-80.5l420,242.5l-0.1,17.4l315.7,185.6
	l18-10.4l224.5,129.6L1943.1,1039.4z M595.5,749.9L560,770.4c-8.3,14.6-33,55.7-50.6,61.8c-8.3,2.9-15,1.2-19.9-2
	c0.1,9.7,0.2,18.7,0.3,26.6l58.3,33.7c2.4,1.4,5.3,1.4,7.6,0l39.9-23V749.9H595.5z M1269.7,1372.8l175.2-101.2V934.4l-175.2,101.2
	V1372.8z M1373.3,1307c-4.8,0-8.7-6.1-8.7-13.5s3.9-13.5,8.7-13.5c4.8,0,8.7,6.1,8.7,13.5S1378.1,1307,1373.3,1307z M1287.4,1050.8
	l140-80.9v269.5l-140,80.9V1050.8z M652.7,1270.3l81.8,47.8l-51.1,29l-82.1-47.5L652.7,1270.3z M353.7,765.1l33.1-19
	c-0.9,15-2,32.5-3,49.7l-30.1-17.4C348.6,775.4,348.6,768.1,353.7,765.1z M484.3,698.2l-0.2,0.3c-1.2-2.1-2.9-3.9-4.7-5.5l84.3-48.5
	l18.4,10.6c3,1.8,6.9-0.4,6.9-4v-16.8c0-1.4-0.6-2.6-1.6-3.5l10.5-6.1c-1.5,3.6-2.3,7.5-2.3,11.5v91.3l-6.1-3.5l-16.2-9.3
	l-62.1,35.9l22,12.7l-22.4,21.8C513.8,711.2,485.3,698.7,484.3,698.2z M701.8,1137.8l262.8,153.7l-132.3,75.4l-262.8-153.6
	L701.8,1137.8z M1733.8,838.5v17.7l-147.5,86l1-19.3L1733.8,838.5z M1505.3,967l-260.5-154.1c-0.5-5.5-1.4-10.9-2.5-16.1L1505.2,948
	L1505.3,967z M639.4,617.4l395-228.1v306.2c-0.3,0.1-0.5,0.2-0.7,0.4c-8.8,4.4-17,9.6-24.7,15.5c-1.3,1-2.6,2-3.8,3.1
	c-2.5,2.1-4.9,4.2-7.3,6.5c-0.9,0.9-1.8,1.7-2.7,2.6c-6.5,6.5-12.4,13.6-17.6,21.2l-14,8.1V624.8l-8.5-5.2L775,723.5v138.3v0.4
	l8.5,5.2l55.8-32.2v31.9l10.7,6.5v0.3l69.9-40.3v-39.3l33,19c-0.4,4.7-0.7,9.4-0.7,14.2l0,0c0,1,0,1.9,0.1,2.9c0,0.3,0,0.6,0,1
	c0,0.7,0.1,1.4,0.1,2.1c0,0.4,0.1,0.7,0.1,1.1c0.1,0.7,0.1,1.4,0.2,2.1c0,0.3,0.1,0.7,0.1,1c0.1,0.9,0.2,1.9,0.4,2.8
	c0,0.1,0,0.3,0.1,0.4c0.2,1.1,0.3,2.2,0.5,3.3c0.1,0.3,0.1,0.7,0.2,1c0.1,0.8,0.3,1.6,0.4,2.5c0.1,0.4,0.2,0.8,0.2,1.2
	c0.2,0.8,0.3,1.6,0.5,2.4c0.1,0.4,0.2,0.8,0.2,1.2c0.2,1,0.4,1.9,0.7,2.9c0.1,0.2,0.1,0.5,0.2,0.7c0.3,1.2,0.6,2.5,0.9,3.7
	c0.1,0.3,0.2,0.6,0.2,0.9c0.3,1,0.5,1.9,0.8,2.9c0.1,0.4,0.2,0.8,0.3,1.2c0.1,0.2,0.1,0.4,0.2,0.6l-120.7,69.7L743.6,880l-25.7-15
	c-5.3-3.1-11.9-3.2-17.2-0.1l-10.8,6.1l-0.2,40.2l-74.4,43V631.4l4.4-2.5l9.2,5.3c4.7,2.7,10.5-0.7,10.5-6.1V617.4z M709.1,897.1
	l277.2,162.1l-1.2,214l-277.1-162L709.1,897.1z M1508.8,896.2l-51.1,10.2l-12.6-68l4.4-0.9l11.9,64.1l44.3-8.8
	C1506.7,894,1507.8,895.1,1508.8,896.2z M1522.4,889.4l33.8-6.7l0.8,3.8l-30.9,6.1C1524.9,891.7,1523.6,890.5,1522.4,889.4z"></path>
<path id="color_x5F_8" fill="#fbc02d" d="M1471.5,844.4c0.1,0.2,0.3,0.5,0.4,0.7C1471.8,844.9,1471.6,844.7,1471.5,844.4z
	 M1468.5,839.4c-0.2-0.3-0.4-0.6-0.5-1C1468.1,838.8,1468.3,839.1,1468.5,839.4z M1469.7,841.5c-0.1-0.3-0.3-0.5-0.4-0.8
	C1469.4,841,1469.6,841.2,1469.7,841.5z M1472.8,846.6c0.2,0.3,0.4,0.6,0.6,0.9C1473.2,847.2,1473,846.9,1472.8,846.6z
	 M1476.3,852.1c-0.2-0.3-0.4-0.6-0.6-0.9C1475.9,851.5,1476.1,851.8,1476.3,852.1z M1474.2,848.9c0.2,0.3,0.4,0.6,0.6,0.9
	C1474.6,849.5,1474.4,849.2,1474.2,848.9z M1464.5,831.7c0.2,0.3,0.3,0.6,0.5,1C1464.8,832.4,1464.7,832.1,1464.5,831.7z
	 M1461.4,824.2L1461.4,824.2c0.2,0.6,0.4,1.3,0.7,1.9l0,0C1461.8,825.4,1461.6,824.8,1461.4,824.2z M1461.3,823.8
	c-0.2-0.6-0.4-1.1-0.5-1.7l0,0C1460.9,822.7,1461.1,823.3,1461.3,823.8z M1477.8,854.3c-0.2-0.3-0.3-0.5-0.5-0.8
	C1477.4,853.7,1477.6,854,1477.8,854.3z M1466.1,834.9c-0.2-0.3-0.3-0.7-0.5-1C1465.7,834.3,1465.9,834.6,1466.1,834.9z
	 M1462.9,828.3c-0.2-0.5-0.4-1-0.6-1.5C1462.5,827.2,1462.7,827.8,1462.9,828.3L1462.9,828.3z M1466.7,836.2c0.2,0.3,0.4,0.7,0.5,1
	C1467.1,836.8,1466.9,836.5,1466.7,836.2z M1476.6,784.8c0,0.2,0.1,0.5,0.1,0.7C1476.7,785.3,1476.6,785,1476.6,784.8z
	 M1476.6,784.7c0-0.2-0.1-0.5-0.1-0.7C1476.5,784.2,1476.6,784.5,1476.6,784.7z M1496.2,879.5c-0.3-0.4-0.6-0.8-0.9-1.2
	C1495.6,878.7,1495.9,879.1,1496.2,879.5z M1497.1,880.6c-0.2-0.2-0.3-0.4-0.5-0.6C1496.8,880.2,1496.9,880.4,1497.1,880.6z
	 M1494.7,877.6c-0.2-0.2-0.3-0.4-0.5-0.7C1494.4,877.2,1494.6,877.4,1494.7,877.6z M1481.2,859.2c0.2,0.2,0.3,0.5,0.5,0.7
	C1481.5,859.7,1481.4,859.5,1481.2,859.2z M1493.6,876.1c-0.2-0.2-0.4-0.5-0.5-0.7C1493.2,875.7,1493.4,875.9,1493.6,876.1z
	 M1497.5,881.1c0.1,0.2,0.3,0.4,0.4,0.5C1497.7,881.4,1497.6,881.3,1497.5,881.1z M1498.5,882.4c-0.1-0.1-0.2-0.3-0.4-0.5
	C1498.3,882.2,1498.4,882.3,1498.5,882.4z M1460.3,820.2c0.1,0.6,0.3,1.2,0.4,1.8l0,0C1460.6,821.4,1460.4,820.8,1460.3,820.2
	c-1.1-5.7,14.1-31.3,16.1-34.7l0,0C1476.4,785.5,1459.1,814.1,1460.3,820.2z M1476.5,784c-0.1-1.2-0.1-2.3,0-3.1
	C1476.4,781.7,1476.4,782.7,1476.5,784z M1491.8,873.8c0.2,0.2,0.4,0.5,0.5,0.7C1492.2,874.3,1492,874.1,1491.8,873.8z
	 M1487.1,867.5c0.1,0.2,0.3,0.4,0.4,0.6C1487.4,867.9,1487.2,867.7,1487.1,867.5z M1489.4,870.6c0.1,0.2,0.2,0.3,0.4,0.5
	C1489.6,870.9,1489.5,870.8,1489.4,870.6z M1491.1,872.9c-0.2-0.2-0.3-0.5-0.5-0.7C1490.8,872.4,1490.9,872.6,1491.1,872.9z
	 M1500.1,885.3c0-0.1-0.1-0.2-0.1-0.2C1500,885.2,1500,885.3,1500.1,885.3z M1525.7,879.5c0.2,0.4,0.1,1.3-0.7,2.1
	C1525.8,880.8,1525.9,879.9,1525.7,879.5z M1519.3,883.6c-1,0-2.1,0-3.4-0.2l0,0C1517.2,883.6,1518.3,883.7,1519.3,883.6z
	 M1523,882.9c0.9-0.4,1.6-0.9,2.1-1.3C1524.6,882.1,1523.9,882.6,1523,882.9z M1516.5,883.9c1,1,3.3,3.2,5.9,5.5
	C1519.8,887.1,1517.5,884.9,1516.5,883.9z M1504.6,891.6l-0.1-0.1C1504.6,891.5,1504.6,891.5,1504.6,891.6z M1505.1,892.1
	C1505.1,892.1,1505.1,892.2,1505.1,892.1C1505.1,892.2,1505.1,892.1,1505.1,892.1z M1504,890.8c0,0.1,0.1,0.1,0.1,0.2
	C1504,890.9,1504,890.8,1504,890.8z M1505.7,892.8L1505.7,892.8L1505.7,892.8L1505.7,892.8z M1485.8,827.8c-0.1-0.2-0.2-0.5-0.3-0.7
	C1485.6,827.3,1485.7,827.6,1485.8,827.8z M1526.2,892.7l30.9-6.1L1526.2,892.7c-0.6-0.5-1.2-1-1.9-1.6c0.9,0.8,1.8,1.6,2.7,2.3
	C1526.7,893.2,1526.5,892.9,1526.2,892.7z M1516.3,883.7l0.1,0.1C1516.3,883.8,1516.3,883.8,1516.3,883.7z M1509.5,784.4l-1.7,37.4
	l-22.5,4.5l60.7-12.2l-38.1,7.6L1509.5,784.4z M1522.3,900.4c0,0,0.6,0.3,1.4,0.7C1522.9,900.7,1522.3,900.4,1522.3,900.4
	L1522.3,900.4z M1522.4,889.5c0.6,0.5,1.2,1.1,1.8,1.6C1523.6,890.5,1523,890,1522.4,889.5z M1499.8,884.6c0-0.1,0-0.2,0-0.3
	C1499.8,884.4,1499.8,884.5,1499.8,884.6z M1499.8,884.7c0,0.1,0,0.2,0.1,0.2C1499.9,884.9,1499.9,884.8,1499.8,884.7z
	 M1499.1,883.2c-0.1-0.1-0.2-0.3-0.4-0.4C1498.9,882.9,1499,883,1499.1,883.2z M1503.6,890.3c-0.1-0.1-0.1-0.1-0.2-0.2
	C1503.5,890.2,1503.5,890.3,1503.6,890.3z M1500.3,885.8c0-0.1-0.1-0.2-0.1-0.2C1500.2,885.6,1500.3,885.7,1500.3,885.8z
	 M1484.7,864.2c-0.2-0.3-0.4-0.5-0.6-0.8C1484.3,863.7,1484.5,864,1484.7,864.2z M1483.2,862.1c-0.2-0.3-0.4-0.5-0.6-0.8
	C1482.8,861.6,1483,861.9,1483.2,862.1z M1500.6,886.3c-0.1-0.1-0.1-0.2-0.1-0.3C1500.5,886.1,1500.5,886.2,1500.6,886.3z
	 M1502.4,888.9c0.1,0.1,0.1,0.2,0.2,0.2C1502.5,889,1502.5,888.9,1502.4,888.9z M1502.9,889.5c0.1,0.1,0.1,0.1,0.2,0.2
	C1503,889.6,1503,889.6,1502.9,889.5z M1502.1,888.5c-0.1-0.1-0.1-0.2-0.2-0.2C1502,888.3,1502.1,888.4,1502.1,888.5z M1500.9,886.8
	c-0.1-0.1-0.1-0.2-0.2-0.3C1500.8,886.6,1500.9,886.7,1500.9,886.8z M1501.3,887.3c-0.1-0.1-0.1-0.2-0.2-0.3
	C1501.2,887.2,1501.2,887.2,1501.3,887.3z M1501.7,887.9c-0.1-0.1-0.1-0.2-0.2-0.2C1501.6,887.7,1501.6,887.8,1501.7,887.9z
	 M1484.9,823.6c0,1,0.1,1.9,0.3,2.7c0.1,0.3,0.1,0.5,0.2,0.8C1485.1,826,1484.9,824.8,1484.9,823.6z M489.5,837.9c0-0.3,0-0.7,0-1
	C489.5,837.3,489.5,837.6,489.5,837.9z M489.6,850.4c0,0.4,0,0.8,0,1.2C489.6,851.2,489.6,850.8,489.6,850.4z M489.5,843.6
	c0,0.3,0,0.5,0,0.8C489.5,844.1,489.5,843.8,489.5,843.6z M489.5,840.2c0,0.4,0,0.7,0,1.1C489.5,840.9,489.5,840.5,489.5,840.2z
	 M489.4,833.5c0,0.4,0,0.8,0,1.2C489.4,834.3,489.4,833.9,489.4,833.5z M489.7,866.4c0-0.6,0-1.3,0-1.9
	C489.7,865.1,489.7,865.7,489.7,866.4z M489.7,866.9c0,0.5,0,1,0,1.5C489.7,867.9,489.7,867.4,489.7,866.9z M952.4,820.2
	c0,0.2,0,0.4,0,0.6C952.3,820.6,952.3,820.4,952.4,820.2z M489.7,864c0-0.6,0-1.2,0-1.8C489.7,862.9,489.7,863.5,489.7,864z
	 M952.5,833.9c0-0.2,0-0.3,0-0.5l0,0C952.4,833.6,952.4,833.7,952.5,833.9z M489.6,853.2c0,0.4,0,0.8,0,1.2
	C489.6,853.9,489.6,853.6,489.6,853.2z M952.3,831.3c0-0.1,0-0.2,0-0.4C952.3,831,952.3,831.2,952.3,831.3L952.3,831.3z
	 M552.6,774.7l7.4-4.3l35.6-20.5l19.2-11.1L552.6,774.7z M533.2,763.5l19.4,11.2l-41.4-23.9L533.2,763.5z M382.7,814
	c0-0.2,0-0.3,0-0.5C382.8,813.6,382.7,813.8,382.7,814z M1149.1,1045.4c-2.6,0.6-5.1,1.1-7.7,1.5
	C1144,1046.5,1146.5,1046,1149.1,1045.4z M1126.4,1048.8c-6.2,0.5-12.3,0.7-18.3,0.7C1114.1,1049.6,1120.2,1049.4,1126.4,1048.8z
	 M1103.4,1049.4c-17.9-0.5-34.2-3.2-47.3-6.3C1069.2,1046.2,1085.5,1048.9,1103.4,1049.4z M1213.4,735.7l107.9-62.3l-286.9-168.9
	v191.1c-0.1,0.1-0.3,0.1-0.4,0.2c19.6-9.7,41.6-15.1,64.9-15.1C1145.2,680.7,1186.5,702.2,1213.4,735.7z M1049.9,1041.6
	c0.5,0.1,1.1,0.3,1.6,0.4C1051,1041.9,1050.4,1041.8,1049.9,1041.6z M1534.1,898.4L1534.1,898.4L1534.1,898.4z M1038.5,1038.4
	c-0.6-0.2-1.1-0.3-1.6-0.5C1037.4,1038,1037.9,1038.2,1038.5,1038.4z M489.6,856.3c0,0.3,0,0.6,0,0.9c0-0.1,0-0.2,0-0.4
	C489.6,856.7,489.6,856.5,489.6,856.3z M589.5,724.2l-10-5.8l19.3,11.1l-3.2-1.8L589.5,724.2z M489.6,857.8c0,0.6,0,1.1,0,1.7
	C489.7,858.9,489.7,858.4,489.6,857.8z M952.2,827.4L952.2,827.4L952.2,827.4L952.2,827.4c0-1.2,0-2.4,0-3.6
	C952.2,825,952.2,826.2,952.2,827.4z M1041.4,1039.3c0.7,0.2,1.4,0.4,2.1,0.6C1042.8,1039.7,1042.1,1039.5,1041.4,1039.3z
	 M489.7,860.3c0,0.5,0,0.9,0,1.4C489.7,861.2,489.7,860.7,489.7,860.3z M958.5,864.9c0,0.1,0.1,0.3,0.1,0.4l0,0
	C958.6,865.2,958.5,865.1,958.5,864.9z M1021,703.1c0,0-0.1,0-0.1,0.1C1020.9,703.1,1020.9,703.1,1021,703.1z M1030.4,697.6
	L1030.4,697.6L1030.4,697.6z M1024,701.2L1024,701.2L1024,701.2z M1027.2,699.4L1027.2,699.4L1027.2,699.4z M1001.7,717.5
	c-0.2,0.2-0.4,0.3-0.6,0.5C1001.4,717.8,1001.6,717.6,1001.7,717.5z M985.9,733.9c0.1-0.1,0.1-0.1,0.2-0.2
	C986,733.7,985.9,733.8,985.9,733.9z M1009,711.5L1009,711.5L1009,711.5L1009,711.5z M952.8,837.2c0,0.2,0,0.3,0,0.5l0,0
	C952.8,837.5,952.8,837.4,952.8,837.2z M1448.7,833.6l0.7,3.9l11.9,64.1L1448.7,833.6z M1017.9,705l-0.1,0.1
	C1017.8,705.1,1017.9,705.1,1017.9,705z M1463.4,829.4c0.2,0.4,0.3,0.8,0.5,1.2l-15.2,3.1l15.2-3.1
	C1463.8,830.2,1463.6,829.8,1463.4,829.4z M988.1,731.2c0.1-0.2,0.3-0.3,0.4-0.5C988.4,730.9,988.2,731.1,988.1,731.2z
	 M1014.8,707.2l0.1-0.1C1014.9,707.1,1014.8,707.2,1014.8,707.2z M1011.9,709.2C1011.9,709.3,1011.9,709.3,1011.9,709.2
	C1011.9,709.3,1011.9,709.3,1011.9,709.2z M1499.2,883.3c0.1,0.2,0.3,0.3,0.3,0.4c0.1,0.1,0.1,0.2,0.1,0.3c0-0.1-0.1-0.2-0.1-0.3
	C1499.5,883.6,1499.4,883.5,1499.2,883.3z M957.3,860.7c-0.1-0.3-0.2-0.6-0.2-0.9l0,0C957.2,860.1,957.2,860.4,957.3,860.7
	L957.3,860.7z M955.3,852.5c-0.1-0.4-0.2-0.8-0.2-1.2l0,0C955.2,851.7,955.3,852.1,955.3,852.5L955.3,852.5z M956.2,856.1
	c-0.1-0.2-0.1-0.5-0.2-0.7l0,0C956.1,855.7,956.1,855.9,956.2,856.1L956.2,856.1z M954.4,847.7L954.4,847.7c0.1,0.4,0.1,0.8,0.2,1.1
	C954.5,848.5,954.4,848.1,954.4,847.7z M953.9,845.3L953.9,845.3c0-0.2-0.1-0.4-0.1-0.5C953.9,844.9,953.9,845.1,953.9,845.3z
	 M991.3,727.6c-0.3,0.3-0.6,0.7-1,1C990.7,728.3,991,728,991.3,727.6z M953.2,840.8c0-0.1,0-0.2,0-0.3l0,0
	C953.2,840.6,953.2,840.7,953.2,840.8z M960.5,871.8L960.5,871.8L960.5,871.8L960.5,871.8z M959.2,867.6
	C959.2,867.6,959.2,867.5,959.2,867.6L959.2,867.6C959.2,867.5,959.2,867.6,959.2,867.6z M958.1,863.6L958.1,863.6
	c0.1,0.3,0.2,0.6,0.3,0.9C958.3,864.2,958.2,863.9,958.1,863.6z M992.7,726.1c0.7-0.8,1.5-1.6,2.3-2.3
	C994.2,724.6,993.5,725.4,992.7,726.1z M1485.6,865.5c0.2,0.3,0.4,0.5,0.6,0.8C1486,866,1485.8,865.8,1485.6,865.5z M977.6,744.9
	l-14,8.1v10.5l-43.7,25.2v5.6l33,19l0,0C955.3,788,964.1,764.7,977.6,744.9L977.6,744.9z M1498.5,807.1c-0.8-0.4-1.6-0.7-2.4-1.1
	C1496.8,806.4,1497.6,806.8,1498.5,807.1z M1534.1,898.1C1534.1,898.2,1534.1,898.2,1534.1,898.1
	C1534.1,898.2,1534.1,898.2,1534.1,898.1z M1533.8,898.7l-0.1,0.1C1533.7,898.8,1533.8,898.7,1533.8,898.7z M1576,1148.4
	C1576.1,1148.4,1576.1,1148.4,1576,1148.4C1576.1,1148.4,1576.1,1148.4,1576,1148.4z M1575.6,897.7L1575.6,897.7L1575.6,897.7z
	 M1533.2,899c0.1,0,0.3-0.1,0.4-0.1C1533.4,898.9,1533.3,898.9,1533.2,899z M1533,899c-0.1,0-0.2,0-0.3,0.1
	C1532.8,899,1532.9,899,1533,899z M1533.8,897.8l-0.1-0.1C1533.7,897.7,1533.8,897.8,1533.8,897.8z M1485.1,821
	c-0.1,0.5-0.1,1.1-0.2,1.6c0,0.3,0,0.6,0,0.9C1484.9,822.7,1485,821.8,1485.1,821z M1574.4,1148.6
	C1574.5,1148.6,1574.5,1148.6,1574.4,1148.6C1574.5,1148.6,1574.5,1148.6,1574.4,1148.6z M1575.9,1148.4L1575.9,1148.4
	L1575.9,1148.4z M1575,1148.5C1575,1148.5,1574.9,1148.5,1575,1148.5C1574.9,1148.5,1575,1148.5,1575,1148.5z M1579.9,896.6
	C1579.9,896.6,1580,896.6,1579.9,896.6C1580,896.6,1579.9,896.6,1579.9,896.6z M1575.3,1148.5h0.1H1575.3z M1575.7,1148.4
	L1575.7,1148.4L1575.7,1148.4z M1578.6,897L1578.6,897L1578.6,897z M1479.2,776c-1.3,1.7-2.1,2.7-2.3,3
	C1477.1,778.7,1477.9,777.6,1479.2,776z M1480.1,774.7c1.2-1.5,2.6-3.4,4.1-5.4l0,0C1482.7,771.4,1481.3,773.2,1480.1,774.7z
	 M1479.6,775.5c0.1-0.1,0.2-0.3,0.3-0.4C1479.8,775.2,1479.7,775.3,1479.6,775.5z M1532.4,897.1c0.2,0.1,0.4,0.1,0.5,0.2
	C1532.8,897.2,1532.6,897.1,1532.4,897.1z M1528.1,894.2c0.3,0.2,0.5,0.4,0.8,0.6C1528.6,894.6,1528.3,894.4,1528.1,894.2z
	 M1529.6,895.4c-0.2-0.1-0.4-0.3-0.6-0.5C1529.2,895.1,1529.4,895.2,1529.6,895.4z M1532.1,899.1c0.1,0,0.2,0,0.4,0
	C1532.4,899.1,1532.2,899.1,1532.1,899.1z M1531.9,899.1c-0.1,0-0.3,0-0.4,0C1531.6,899.1,1531.7,899.1,1531.9,899.1z M1225.4,753.1
	C1225.4,753,1225.4,753,1225.4,753.1C1225.4,753,1225.4,753,1225.4,753.1z M1241.4,792.6c0-0.1,0-0.1-0.1-0.2
	C1241.4,792.5,1241.4,792.5,1241.4,792.6z M1533.9,898.6C1534,898.6,1534,898.6,1533.9,898.6C1534,898.6,1534,898.6,1533.9,898.6z
	 M1234.7,772c0,0.1,0,0.1,0.1,0.2C1234.8,772.1,1234.8,772,1234.7,772z M1233.1,768.1L1233.1,768.1L1233.1,768.1z M1242.4,796.8
	L1242.4,796.8L1242.4,796.8L1242.4,796.8z M1595,840.1c-0.3,0.6-0.7,1.2-1,1.7C1594.3,841.3,1594.7,840.7,1595,840.1z M1591.9,845.3
	c0.2-0.3,0.4-0.6,0.5-0.9C1592.3,844.7,1592.1,845,1591.9,845.3z M1596.1,838.2c-0.2,0.3-0.4,0.6-0.6,1
	C1595.7,838.8,1595.9,838.5,1596.1,838.2z M1592.9,843.6c0.2-0.3,0.4-0.7,0.6-1.1C1593.4,842.9,1593.1,843.3,1592.9,843.6z
	 M1596.7,837.1c0.2-0.3,0.4-0.6,0.5-0.9C1597.1,836.5,1596.9,836.8,1596.7,837.1z M1943.1,1039.4l-908.2,524.4l-224.5-129.6
	l193.8-112.2l0.1-22.6l19.4-11l1.3-232.3c0-7.1-3.7-13.7-9.8-17.3L779.8,901.1l58,33.9l11.5,6.7L962,876.6v-0.1l0,0
	c18,55.6,56.1,125.4,73.5,160.8l0,0c5.5,11.2,8.9,19,8.9,21.7c0,30.1,24.4,54.5,54.5,54.5s54.5-24.4,54.5-54.5c0-2.2,2.4-8,6.3-16.3
	l0,0c20.8-43.7,85.9-159.2,85.9-215.4c0-4.9-0.2-9.7-0.7-14.5L1505.3,967l1.5,199.9c0,0-8.1,16-6.3,19.6s30.2,14.2,38.7,18.2
	s16.5,1.3,16.5-1.6s-23.2-34.9-23.2-34.9l16.2-140l1.9,115.9c0.4,0.8,1.1,1.5,1.9,2l0,0c-1.9,4-7.1,15.2-5.6,18.1
	c1.9,3.6,30.2,14.2,38.7,18.2s16.5,1.3,16.5-1.6s-25.9-35.6-25.9-35.6l0,0l12.4-249.2l-1.3,26.8l-1,19.3l96.3-56.2L1943.1,1039.4z
	 M1445,934.4l-16.9-9.8l-175.2,101.2v337.3l16.9,9.8l175.2-101.2V934.4z M1588.2,851.5c0.2-0.3,0.3-0.6,0.5-0.9
	C1588.6,850.9,1588.4,851.2,1588.2,851.5z M1362.7,1276.8l-75.3,43.5l140-80.9l-54.1,31.2L1362.7,1276.8z M1587.6,852.5
	c0.1-0.2,0.3-0.5,0.4-0.7C1587.9,852,1587.8,852.3,1587.6,852.5z M1587,853.5c0.1-0.2,0.3-0.4,0.4-0.7
	C1587.3,853,1587.1,853.2,1587,853.5z M1589,850.3c0.2-0.4,0.5-0.8,0.8-1.3C1589.5,849.4,1589.2,849.9,1589,850.3z M1589.9,848.7
	c0.2-0.4,0.4-0.7,0.7-1.1C1590.4,847.9,1590.2,848.3,1589.9,848.7z M1591,847c0.2-0.3,0.4-0.6,0.5-0.9
	C1591.3,846.4,1591.1,846.7,1591,847z M424.1,1106.9L424.1,1106.9L424.1,1106.9z M424,1107.3L424,1107.3L424,1107.3z M1577.1,897.3
	L1577.1,897.3L1577.1,897.3z M424.2,1104.8L424.2,1104.8L424.2,1104.8z M424.1,1106.3C424.1,1106.4,424.1,1106.4,424.1,1106.3
	C424.1,1106.4,424.1,1106.4,424.1,1106.3z M424,1107.5L424,1107.5L424,1107.5z M476.9,1235.6l211.8-120.7l1-203.7l-74.4,43l-8.4-5.1
	c-7.1-4.3-11.4-12-11.4-20.3V892l-36.2,20.9c-4.6,2.7-10.4,2.7-15,0l-54.5-31.5c0-1.2,0-2.5,0-4c0,6,0.1,9.4,0.1,9.4s0-0.1,0-0.2
	c0,0.1,0,0.2,0,0.2l-11.8,251.5c0.9,0.9,1.6,1.5,1.6,1.5s42.8,0.4,30.8,14.6c-12,14.3-52.1,10.1-54.8,9c-2.3-1-0.7-16.4-0.2-21.9
	c-0.8-10.5-18.1-223.8-21.5-227.7c-3.2-3.6-8.4,158.2-9.7,188.7l0,0c6.9-0.2,19.6,0,18.2,3.9c-1.9,5.3-15.4,28.5-25.9,30.4
	s-16.9-0.8-17.3-2.6c-0.2-1.1,1.1-12.6,2.1-21.4v0.1L389,882.4l1.4,25.5c-5.2-3.5-11.5-9.3-12.4-13.8c-1.2-6.3,2.6-17.4,4.7-23.5
	l-3.2-1.2c0,0,1.3-22.3,2.9-50.3c0,0.1,0,0.2,0,0.3l-7.2-4.1L56.9,999.1l420,242.5V1235.6z M489.8,872.9
	C489.8,872.8,489.8,872.8,489.8,872.9C489.8,872.8,489.8,872.8,489.8,872.9z M489.7,869.1c0,0.3,0,0.5,0,0.8
	C489.7,869.6,489.7,869.4,489.7,869.1z M489.8,875.1c0,0.2,0,0.4,0,0.6C489.8,875.5,489.8,875.3,489.8,875.1z M1586.6,854.2
	c0.1-0.2,0.3-0.4,0.4-0.7C1586.8,853.8,1586.7,854,1586.6,854.2l-0.5-9.4l2.6,46l-1.4-25.3L1586.6,854.2z M489.8,876.2
	c0,0.4,0,0.7,0,1.1C489.8,876.9,489.8,876.5,489.8,876.2z M1588.6,890.8c-0.3,0.6-0.8,1.2-1.3,1.8c0.6,1,1.1,2.2,1.3,3.6l-0.3-4.9
	C1588.4,891.1,1588.5,891,1588.6,890.8z M489.8,870.9c0,0.3,0,0.6,0,0.8C489.8,871.5,489.8,871.2,489.8,870.9z M1533.9,897.9
	C1534,898,1534,898,1533.9,897.9C1534,898,1534,898,1533.9,897.9z M1479.7,792.8c-0.1-0.2-0.2-0.4-0.3-0.6
	C1479.5,792.4,1479.6,792.6,1479.7,792.8z M1476.8,786L1476.8,786c0-0.1-0.1-0.2-0.1-0.3c0.1,0.4,0.2,0.9,0.4,1.7
	c-0.2-0.6-0.3-1.1-0.4-1.7C1476.8,785.7,1476.8,785.8,1476.8,786z M1479,791.5c0.1,0.2,0.2,0.3,0.3,0.5
	C1479.2,791.9,1479.1,791.7,1479,791.5z M1480.2,793.5c-0.1-0.2-0.3-0.4-0.4-0.6C1480,793.1,1480.1,793.3,1480.2,793.5z M1478,789.5
	c0.1,0.2,0.1,0.3,0.2,0.5C1478.1,789.8,1478.1,789.7,1478,789.5z M1478.6,790.8c0.1,0.2,0.2,0.3,0.3,0.5
	C1478.8,791.2,1478.7,791,1478.6,790.8z M1476.7,779.7c0,0.1,0,0.2,0,0.2C1476.6,779.9,1476.7,779.8,1476.7,779.7z M1476.7,785.2
	L1476.7,785.2L1476.7,785.2z M1476.8,779.1L1476.8,779.1L1476.8,779.1z M1476.6,780c0,0.1,0,0.2,0,0.3
	C1476.6,780.2,1476.6,780.1,1476.6,780z M1476.5,780.8c0-0.1,0-0.3,0-0.4C1476.5,780.6,1476.5,780.7,1476.5,780.8z M1476.7,785.4
	c0,0.1,0,0.1,0,0.2C1476.7,785.5,1476.7,785.4,1476.7,785.4z M1476.7,785.4c0-0.1,0-0.1,0-0.1
	C1476.7,785.3,1476.7,785.3,1476.7,785.4z M1478.3,790.2c0.1,0.2,0.2,0.3,0.2,0.5C1478.4,790.5,1478.4,790.3,1478.3,790.2z
	 M1486.7,815.1c-0.1,0.2-0.2,0.5-0.3,0.7C1486.5,815.6,1486.6,815.4,1486.7,815.1z M1509.5,784.4L1509.5,784.4l-11,22.8
	L1509.5,784.4z M1486.1,817c0.1-0.3,0.2-0.5,0.2-0.8C1486.2,816.5,1486.1,816.7,1486.1,817z M1487.2,813.9c-0.1,0.3-0.3,0.6-0.4,0.9
	C1486.9,814.5,1487.1,814.2,1487.2,813.9z M1485.4,819.3c0,0.1-0.1,0.3-0.1,0.4C1485.4,819.5,1485.4,819.4,1485.4,819.3z
	 M1485.9,817.3c-0.1,0.4-0.2,0.7-0.3,1.1C1485.7,818.1,1485.8,817.7,1485.9,817.3z M1493.8,804.9c-3.6-1.9-6.4-3.9-8.7-5.8
	C1487.4,801,1490.2,803,1493.8,804.9z M1477.1,787.3c0,0.1,0.1,0.3,0.1,0.5C1477.2,787.6,1477.2,787.4,1477.1,787.3z M1477.3,787.8
	c0,0.1,0.1,0.3,0.2,0.5C1477.4,788.1,1477.4,787.9,1477.3,787.8z M1477.5,788.3c0.1,0.1,0.1,0.3,0.2,0.5
	C1477.6,788.6,1477.6,788.5,1477.5,788.3z M1477.7,788.9c0.1,0.1,0.1,0.3,0.2,0.5C1477.9,789.2,1477.8,789.1,1477.7,788.9z
	 M1493.8,804.9L1493.8,804.9L1493.8,804.9l-3.1,4.2L1493.8,804.9L1493.8,804.9c0.1,0,0.1,0.1,0.2,0.1
	C1493.9,804.9,1493.9,804.9,1493.8,804.9z M1484.9,798.8l0.1,0.1c-2-1.8-3.5-3.6-4.7-5.3c1,1.5,2.4,3.1,4,4.7
	C1484.5,798.5,1484.7,798.6,1484.9,798.8z M1528.9,898.8c0.2,0,0.4,0.1,0.6,0.1C1529.3,898.9,1529.1,898.9,1528.9,898.8z
	 M1530.3,903.5L1530.3,903.5c0.5,0,0.6-0.3,0.4-0.8C1530.8,903.2,1530.7,903.5,1530.3,903.5z M1530.4,899c-0.2,0-0.3,0-0.5-0.1
	C1530,899,1530.2,899,1530.4,899z M1528.7,899.7c0.2,0.3,0.5,0.6,0.7,0.9C1529.1,900.3,1528.9,900,1528.7,899.7z M1531.2,899.1
	c-0.1,0-0.3,0-0.5,0C1530.9,899.1,1531,899.1,1531.2,899.1z M1476.7,779.5c0,0.1,0,0.1,0,0.2
	C1476.7,779.6,1476.7,779.5,1476.7,779.5z M1530.7,902.7c-0.1-0.2-0.2-0.5-0.4-0.8C1530.5,902.2,1530.6,902.5,1530.7,902.7z
	 M1529.4,900.6c0.4,0.5,0.7,0.9,0.9,1.4C1530.1,901.5,1529.7,901,1529.4,900.6z M1524.3,901.4c0.4,0.2,0.8,0.4,1.2,0.6
	C1525.1,901.8,1524.7,901.6,1524.3,901.4z M1530.4,895.9c-0.2-0.1-0.4-0.3-0.6-0.4C1530,895.7,1530.2,895.8,1530.4,895.9z
	 M1531.1,896.4c-0.2-0.1-0.4-0.3-0.6-0.4C1530.7,896.2,1530.9,896.3,1531.1,896.4z M1531.9,896.8c0.2,0.1,0.3,0.2,0.5,0.2
	C1532.2,897,1532,896.9,1531.9,896.8z M1531.3,896.5c0.2,0.1,0.3,0.2,0.4,0.2C1531.6,896.7,1531.4,896.6,1531.3,896.5z
	 M1527.2,893.6c0.2,0.2,0.4,0.4,0.7,0.5C1527.7,893.9,1527.4,893.7,1527.2,893.6z M1527.7,898.6c0.3,0.1,0.7,0.2,1,0.2
	C1528.3,898.7,1528,898.6,1527.7,898.6z M1525.7,906.7c-0.1,0-0.2,0-0.3,0c-1.1-0.2-2.5-1.1-3.6-2c1.1,0.9,2.5,1.8,3.6,2
	C1525.5,906.7,1525.6,906.7,1525.7,906.7z M1512.1,899.6L1512.1,899.6L1512.1,899.6z M1511.9,899.4
	C1511.9,899.5,1512,899.5,1511.9,899.4C1512,899.5,1511.9,899.5,1511.9,899.4z M1509.2,896.7c-0.1-0.1-0.2-0.2-0.2-0.2
	C1509.1,896.5,1509.2,896.6,1509.2,896.7z M1511.8,899.4l-0.1-0.1C1511.7,899.3,1511.8,899.3,1511.8,899.4z M1476.8,779.2
	C1476.8,779.2,1476.8,779.1,1476.8,779.2C1476.8,779.1,1476.8,779.2,1476.8,779.2z M1509.7,897.2c-0.1-0.1-0.1-0.2-0.2-0.2
	C1509.6,897,1509.6,897.1,1509.7,897.2z M1476.7,779.4c0-0.1,0-0.1,0-0.1C1476.8,779.3,1476.8,779.3,1476.7,779.4z M1510.2,897.7
	c-0.1-0.1-0.2-0.2-0.2-0.3C1510,897.5,1510.1,897.6,1510.2,897.7z M1510.6,898.1c-0.1-0.1-0.1-0.1-0.2-0.2
	C1510.4,897.9,1510.5,898,1510.6,898.1z M1511.1,898.7l0.1,0.1C1511.2,898.7,1511.2,898.7,1511.1,898.7z M1510.8,898.3
	c0.1,0.1,0.1,0.1,0.2,0.2C1510.9,898.4,1510.8,898.3,1510.8,898.3z M1511.5,899l0.1,0.1C1511.5,899.1,1511.5,899,1511.5,899z"></path>
<path id="color_x5F_7" fill="#FCFDFF" d="M592.2,441.8c6.5-3.8,13.1-7.6,19.6-11.5c4.4-2.6,8.4,4.3,4,6.9
	c-6.5,3.8-13.1,7.6-19.6,11.5C591.8,451.3,587.8,444.4,592.2,441.8z M1613.5,803.6c-5.7,15.8-23.8,45.5-27,50.6l0.6,11.3L1654,827
	L1613.5,803.6z M571.5,423.3c0-7,0-13.9,0-20.9c0-5.1-8-5.1-8,0c0,7,0,13.9,0,20.9C563.6,428.5,571.5,428.5,571.5,423.3z
	 M1509.5,784.4l-11,22.8c-1.6-0.7-3.2-1.5-4.6-2.2l0,0l-6.3,8.3c-0.1,0.2-0.2,0.5-0.4,0.7c-0.6,1.3-1.2,2.8-1.6,4.5
	c-0.3,1.4-0.6,2.8-0.7,4.1s0,2.6,0.2,3.7l22.5-4.5L1509.5,784.4z M1504.9,912.9l-0.1-16l-21.2,4.2l20.9,12L1504.9,912.9z
	 M544.8,426.8c-4.1-6.4-8.2-12.7-12.4-19.1c-2.8-4.3-9.7-0.3-6.9,4c4.1,6.4,8.2,12.7,12.4,19.1C540.7,435.1,547.6,431.1,544.8,426.8
	z M1582.7,786.2l1.9,34.3c2.4-4.1,10.8-18.7,8.5-21.6c-1.3-1.7-4.4-6.7-7-11.2l-3.1-1.8C1582.9,786.2,1582.7,786.2,1582.7,786.2z
	 M533.8,451.2c-7.9-4.4-15.7-8.7-23.6-13.1c-4.5-2.5-8.5,4.4-4,6.9c7.9,4.4,15.7,8.7,23.6,13.1C534.2,460.5,538.3,453.7,533.8,451.2
	z M1287.4,1190l111.4,66l28.7-16.6V1194l-140-80.9v76.9H1287.4z M564.2,433.5c-14,0-25.4,11.4-25.4,25.4c0,9.3,10.4,28.2,14.4,36.3
	c3.8,1.3,12.6,3.5,21.5,0.9c3.6-7.6,14.9-27.5,14.9-37.3C589.6,444.9,578.2,433.5,564.2,433.5z M1287.4,1234l75.3,42.8l10.7-6.2
	l-86-49.9V1234z M1297.9,1044.7l129.5,79.6v-70.4l-64.4-46.8L1297.9,1044.7z M1445,838.4l4.4-0.9l-0.7-3.9l15.2-3.1
	c-0.3-0.7-0.6-1.3-0.9-2c0-0.1-0.1-0.2-0.1-0.3c-0.3-0.7-0.5-1.3-0.8-1.9c0-0.1-0.1-0.2-0.1-0.2c-0.2-0.6-0.5-1.3-0.7-1.9
	c0-0.1,0-0.1-0.1-0.2c-0.2-0.6-0.4-1.3-0.6-1.9V822c-0.2-0.6-0.3-1.2-0.4-1.8c-1.2-6.1,16.1-34.7,16.1-34.7l0,0
	c0.1-0.2,0.2-0.4,0.2-0.4s0,0.3,0.1,0.8l0,0c-0.9-4.1,0-6.9,0-6.9s19.8-25.9,28.5-37.9l-100.9-58.3l-149.7,86.5l198.8,114.4
	L1445,838.4z M617.8,492c-7.9-4.4-15.7-8.7-23.6-13.1c-4.5-2.5-8.5,4.4-4,6.9c7.9,4.4,15.7,8.7,23.6,13.1
	C618.3,501.4,622.3,494.5,617.8,492z M1098.9,680.7c-81,0-146.7,65.7-146.7,146.7c0,54,60.1,162.8,83.3,210
	c22.1,7.3,73,20.1,124.2,5.4c20.8-43.7,85.9-159.2,85.9-215.4C1245.6,746.4,1179.9,680.7,1098.9,680.7z"></path>
<path id="color_x5F_6" fill="#3f505c" d="M1584.6,785.2c0.5,0.8,1,1.7,1.5,2.6l-3.1-1.8C1583.4,785.8,1584,785.5,1584.6,785.2z
	 M1287.4,1190v30.8l86,49.9l54.1-31.2l-28.7,16.6L1287.4,1190z M1363,1007.1l64.4,46.8V970l-121,69.8L1363,1007.1z M1598.5,760.4
	c3.5,5.6,5.7,10,5.1,11.3l0,0c6.2,10.5,11.2,20,11.7,24c0.2,1.8-0.5,4.5-1.7,7.8l40.5,23.4l-66.9,38.5l1.4,25.3
	c-0.1,0.2-0.2,0.3-0.3,0.5l0.3,4.9l-1.3,26.8l146.5-84.4L1598.5,760.4z M850,873.8l69.9-40.3v-44.9l43.7-25.2V624.8l-180.1,104
	v138.6L850,829V873.8z M1287.4,1050.8v62.4l140,80.9v-69.7l-129.5-79.6L1287.4,1050.8z M1373.3,1280c-4.8,0-8.7,6.1-8.7,13.5
	s3.9,13.5,8.7,13.5c4.8,0,8.7-6.1,8.7-13.5S1378.1,1280,1373.3,1280z M1373.3,1270.7L1373.3,1270.7l-6.3,3.6L1373.3,1270.7z
	 M1287.4,1320.3l75.3-43.5l-75.3-42.8V1320.3z M1035.5,1037.4c5.5,11.2,8.9,19,8.9,21.7c0,30.1,24.4,54.5,54.5,54.5
	s54.5-24.4,54.5-54.5c0-2.2,2.4-8,6.3-16.3C1108.5,1057.5,1057.6,1044.7,1035.5,1037.4z M689.9,870.9l315.8,184.7l-1.3,243.8
	l-211.8,120.7l-315.7-184.6l211.8-120.7L689.9,870.9z M734.5,1318.1l-81.8-47.8l-51.5,29.3l82.1,47.5L734.5,1318.1z M964.7,1291.5
	l-262.8-153.7l-132.3,75.4l262.8,153.6L964.7,1291.5z M708.1,1111.2l277.1,162l1.2-214L709.1,897.1L708.1,1111.2z M1504.9,912.9
	l-0.4,0.2l-20.9-12l-26,5.2l-4.2-22.5l-198.8-114.4l149.7-86.5l100.9,58.3c2.3-3.2,3.8-5.4,4-5.9c0.1-0.4,1.4-1,3.2-1.6
	c-1.8-5.2-2.4-13.8-1.6-23.8l-126.5-73l-171.1,98.8c14,17.5,24.1,38.3,29,61l263,151.3L1504.9,912.9z"></path>
<path id="color_x5F_5" fill="#ffe4b7" d="M482.7,648.8c-1,5.9,1.3,8.3,3.1,6.1c1.1-1.5,2.3,0.4,3.7,0.7c0.8,6.7,0.7,12.4-1.3,14.8
	c-2.9,3.4-13.8,3.7-25.1,2.4c0.3,1.4,0.6,2.8,0.9,4.2l-24.8-4.1v-5.7c-3.2-1.3-5.4-2.8-6.1-4.2c-1.1-2.3-3.6-6.3-6.1-11.1
	c7.5,0.1,16.3,4.4,18.9-5.2c0,0-10.2-18.6,1-12.9s9.3,11.7,9.3,11.7l0.1,5.5h3.7c0,0-4.8-15.5,2.1-18.2s20.1-5.9,19.6-10.9
	c0,0,3.5,11,6,22.7C485.4,644.8,483.1,645.8,482.7,648.8z M389,882.4c0,0-0.1-3.5-0.2-9.6l-6-2.2c-2.2,6.1-5.9,17.2-4.7,23.5
	c0.9,4.5,7.2,10.3,12.4,13.8L389,882.4z M1528.4,688.6c-1.1-11.1,5.7-6.7,5.7-6.7s-1.6,10,2.3,12.2c0,0-0.7-12.5,0.7-14.7
	c1.4-2.1,8.1-4.4,11.1-12.1c0,0,22.4,18.3,32.6,11.5l0,0c0.2,10.9-1.1,29.6-12.2,37.8c-1.2,0.9-2.5,1.7-4,2.3
	c-0.5,0.2-1,0.4-1.5,0.6l2,8.8c0,0,0.5,21-16.6,3.1c-0.3-2.5-0.8-5-1.4-7.3c0.8-1.7,1.6-3.4,2.3-4.7c-2-0.9-3.7-2.1-5.2-3.6
	c-0.1-0.1-0.2-0.2-0.3-0.3c-0.3-0.3-0.6-0.6-0.9-0.9c-0.1-0.1-0.2-0.2-0.2-0.3c-0.2-0.2-0.3-0.4-0.5-0.6c-0.1-0.1-0.1-0.2-0.2-0.2
	c-0.3-0.3-0.5-0.7-0.8-1c-0.1-0.1-0.1-0.2-0.2-0.3c-0.3-0.4-0.5-0.7-0.8-1.1l-0.1-0.1c-0.1-0.2-0.2-0.4-0.4-0.6
	c-0.1-0.1-0.1-0.2-0.2-0.3c-0.2-0.3-0.4-0.6-0.5-0.9c-0.1-0.1-0.1-0.2-0.2-0.3c-0.1-0.2-0.2-0.4-0.3-0.5c-0.1-0.1-0.1-0.2-0.2-0.3
	c-0.1-0.3-0.3-0.6-0.4-0.8c-0.1-0.1-0.1-0.2-0.2-0.3c-0.1-0.2-0.2-0.4-0.3-0.7c-0.1-0.1-0.1-0.3-0.2-0.4c-0.1-0.1-0.1-0.3-0.2-0.4
	c0-0.1-0.1-0.2-0.1-0.3c-0.1-0.2-0.2-0.4-0.2-0.6c0-0.1-0.1-0.2-0.1-0.2c0-0.1-0.1-0.2-0.1-0.3V704c-0.2-0.5-0.3-0.9-0.4-1.1l0,0
	c0-0.1-0.1-0.1-0.1-0.2l-2.3-9.4C1533.8,693.3,1529.5,699.7,1528.4,688.6z M1532.4,897c-3.9-1.4-16.4-13.6-16.4-13.6
	c10.2,1.4,11-4.9,8.9-4.2s-15.5-2.1-15.5-2.1s-2-4.4-4.1-7.2l-19.5-42.1c-2-3.5-0.2-11,1.8-14.6l6.3-8.3
	c-16.1-8.2-17.2-19.7-17.2-19.7s-17.6,28.9-16.4,35c3.9,19.7,36.3,59.9,39.3,63.5c0.1,0.2,0.2,0.4,0.2,0.5
	c0.1,3.2,12.4,15.5,12.4,15.5s7,9.3,8.9,8.7s-1.4-5.4-1.4-5.4s3.4,3.2,5.6,3.6c2.2,0.5-3-6.2-3-6.2s6,3,8,3s-2.6-4.9-2.6-4.9
	C1533.3,900,1536.2,898.4,1532.4,897z M1603.5,771.7c-0.1,0.1-0.1,0.2-0.2,0.4l-0.1,0.1c-0.1,0.1-0.1,0.2-0.2,0.3l-0.1,0.1
	c-0.1,0.1-0.2,0.2-0.3,0.3l-0.1,0.1c-0.1,0.1-0.3,0.3-0.4,0.4l0,0c-0.2,0.2-0.3,0.3-0.5,0.5c-0.1,0-0.1,0.1-0.2,0.1
	c-0.1,0.1-0.3,0.2-0.4,0.4c-0.1,0.1-0.1,0.1-0.2,0.2c-0.1,0.1-0.3,0.2-0.5,0.4c-0.1,0.1-0.1,0.1-0.2,0.2c-0.2,0.2-0.4,0.3-0.7,0.5
	l0,0c-0.2,0.2-0.5,0.4-0.7,0.6c-0.1,0-0.1,0.1-0.2,0.1c-0.2,0.1-0.4,0.3-0.6,0.4c-0.1,0.1-0.2,0.1-0.2,0.2c-0.2,0.1-0.4,0.3-0.6,0.4
	c-0.1,0-0.1,0.1-0.2,0.1c-0.3,0.2-0.5,0.4-0.8,0.6l0,0c-0.3,0.2-0.6,0.4-0.9,0.6c-0.1,0-0.1,0.1-0.2,0.1c-0.2,0.1-0.5,0.3-0.7,0.4
	c-0.1,0.1-0.2,0.1-0.2,0.2c-0.2,0.1-0.4,0.3-0.6,0.4c-0.1,0-0.1,0.1-0.2,0.1c-0.3,0.2-0.5,0.3-0.8,0.5c0,0,0,0-0.1,0
	c-0.3,0.2-0.6,0.4-0.9,0.5c-0.1,0-0.1,0.1-0.2,0.1c-0.2,0.1-0.4,0.3-0.6,0.4c-0.1,0.1-0.2,0.1-0.3,0.2c-0.2,0.1-0.4,0.2-0.5,0.3
	s-0.2,0.1-0.3,0.2c-0.2,0.1-0.4,0.2-0.6,0.3c-0.1,0-0.1,0.1-0.2,0.1c-0.2,0.1-0.5,0.3-0.7,0.4c-0.1,0.1-0.2,0.1-0.3,0.2
	c-0.1,0.1-0.3,0.2-0.4,0.2c-0.1,0.1-0.2,0.1-0.3,0.2c-0.1,0.1-0.2,0.1-0.3,0.2c-0.1,0.1-0.2,0.1-0.4,0.2c-0.1,0-0.1,0.1-0.2,0.1
	c-0.5,0.3-1,0.6-1.4,0.8l0,0c2.9,4.9,6.9,11.7,8.5,13.8c2.3,2.9-6.1,17.6-8.5,21.6l1.1,19.8l0.8,13.8c3.8-6.2,29.7-48.5,28.6-58.5
	C1614.8,791.8,1609.7,782.2,1603.5,771.7L1603.5,771.7z"></path>
<path id="color_x5F_4" fill="#000000" d="M614.7,738.8l-62.1,35.9l-41.4-23.9l62.1-35.9l16.2,9.3l-10-5.8l-5.4,3.6l19.3,11l5.4-3.6
	L614.7,738.8z M1015.3,1038.8L717.9,864.9c-5.3-3.1-11.9-3.2-17.2-0.1l-10.8,6.1l315.8,184.7l-1.3,243.8l19.4-11l1.3-232.3
	C1025.1,1049,1021.4,1042.4,1015.3,1038.8z M1004.4,1299.4l-0.1,22.6l-211.8,122.6L476.8,1259l0.1-23.5l315.7,184.6L1004.4,1299.4z
	 M382.4,819.5l-32.7-18.9c-4.6-2.7-7.5-7.6-7.5-13V781c0-5.7,3.2-10.8,8.2-13.4l1-0.5c-2.7,3.5-2,8.9,2.2,11.3l30.1,17.4
	C383.3,803.9,382.9,811.9,382.4,819.5z M595.5,928.6V892l-36.2,20.9c-4.6,2.7-10.4,2.7-15,0l-54.5-31.5c0-5.2-0.1-13.8-0.2-24.6
	l58.3,33.7c2.4,1.4,5.3,1.4,7.6,0l39.9-23V749.9l19.2-11.1l-16-9.2l0,0l-3.2-1.8v-91.3c0-6.6,2.2-12.9,6.1-18l18.1,10.4l-4.4,2.5
	V954l-8.4-5.1C599.8,944.6,595.5,936.9,595.5,928.6z M963.6,624.8l-180.1,104v138.6l-8.5-5.2V723.5l180.1-104L963.6,624.8z
	 M1445,934.4l-175.2,101.2v337.3l-16.9-9.8v-337.3l175.2-101.2L1445,934.4z M1024.9,383.5l9.5,5.9l-395,228.1v-15
	c0-2.5-1.3-4.8-3.5-6.1l-0.4-0.2l368.8-213C1010.7,379.5,1018.6,379.6,1024.9,383.5z M850,829v44.6l-10.7-6.5v-31.9L850,829z
	 M837.9,935.1l120.7-69.7c0.2,0.7,0.4,1.4,0.6,2.1c0.1,0.4,0.2,0.8,0.4,1.2c0.3,1,0.6,2.1,0.9,3.1c0.1,0.3,0.2,0.5,0.2,0.8
	c0.4,1.3,0.8,2.7,1.3,4v0.1l-112.7,65.1L837.9,935.1z M1499.8,884.3c0-0.1-0.1-0.3-0.2-0.5c-2.5-3.1-26.1-32.3-35.6-53.2l-15.2,3.1
	l12.6,68l44.3-8.8C1502.7,889.4,1499.8,885.8,1499.8,884.3z M1485.8,827.8l19.5,42.1c2.1,2.8,4.1,7.2,4.1,7.2s13.4,2.8,15.5,2.1
	s1.3,5.6-8.9,4.2c0,0,3,2.9,6.5,6l38.3-7.6l-14.8-67.7l-60.7,12.2C1485.4,826.8,1485.5,827.3,1485.8,827.8z"></path>
<path id="color_x5F_3" fill="#918088" d="M598.7,729.6l-5.4,3.6l-19.3-11l5.4-3.6L598.7,729.6z M389.4,889.2l-0.4-6.8l12.5,230.6
	c8.5,11,22-7,22.5-5.5s6.5-197.6,10-193.6s21.5,228.1,21.5,228.1c13.5,8.5,22.5-3,22.5-3l11.8-252.1l-0.1,2.6
	C455.1,897.5,415.1,893.7,389.4,889.2z M489.8,886.8c0,0.1,0,0.2,0,0.2S489.9,886.9,489.8,886.8z M575,495.5c-0.9,1.8-1.4,3-1.4,3.5
	c0,5.2-4.2,9.4-9.4,9.4s-9.4-4.2-9.4-9.4c0-0.5-0.7-2.1-1.8-4.3c0.1,0.2,0.2,0.4,0.3,0.5c3.8,1.3,12.6,3.5,21.5,0.9
	C574.8,495.9,574.9,495.7,575,495.5z M1587.3,892.6c-7.6,7.9-33.1,7.1-53.8,4.9c2,1.2-0.8,2.3-5.8,1c0,0,4.6,4.9,2.6,4.9s-8-3-8-3
	s5.3,6.7,3,6.2c-2.2-0.5-5.6-3.6-5.6-3.6s3.3,4.8,1.4,5.4c-1.9,0.6-8.9-8.7-8.9-8.7s-2.7-2.7-5.6-5.9c-1.2-0.2-1.8-0.3-1.8-0.3
	l0.1-1.7l-0.1-0.1l2.1,275.2c9.7,10.2,25.8,1.3,25.8,1.3l16.2-140l1.9,115.9c4.2,7.6,25.4,4.3,25.4,4.3l12.5-252.2
	C1588.3,894.8,1587.9,893.6,1587.3,892.6z"></path>
<path id="color_x5F_2" fill="#bdb8ad" d="M639.4,602.5v25.7c0,5.4-5.8,8.8-10.5,6.1L588.6,611c-2.2-1.2-3.5-3.6-3.5-6.1v-25.7
	c0-5.4,5.8-8.8,10.5-6.1l40.3,23.3C638.1,597.7,639.4,600,639.4,602.5z M533.2,763.5l-22.4,21.8c3-74-25.5-86.5-26.5-87l-0.2,0.3
	c-5-8.7-18.1-13.1-18.1-13.1s-1.1-4-2.1-8.5l-24.8-4.1v6.1c0,0-12.1-9.5-29.6,1.9l0,0c-2.9,2-18.3,1.6-21.1,43.1
	c-2.8,41.5-8.8,145.6-8.8,145.6l9.3,3.4c0.1,6.1,0.2,9.6,0.2,9.6l0.4,6.8c25.8,4.4,65.7,8.2,100.4,0.3l0.1-2.6c0,0-0.1-25-0.5-56.7
	c5,3.3,11.6,4.9,19.9,2c17.6-6.1,42.3-47.2,50.6-61.8l-7.4,4.3L533.2,763.5z M586.7,630.4l-26.3-15.2c-3-1.8-6.9,0.4-6.9,4V636
	c0,1.6,0.9,3.1,2.3,4l26.3,15.2c3,1.8,6.9-0.4,6.9-4v-16.8C589,632.7,588.1,631.2,586.7,630.4z M672.6,466.9V560
	c0,19.5-21.2,31.7-38.1,22l-146.3-84.5c-7.9-4.5-12.7-12.9-12.7-22v-93.1c0-19.5,21.2-31.7,38.1-22l146.3,84.5
	C667.8,449.5,672.6,457.8,672.6,466.9z M596.2,448.7c6.5-3.8,13.1-7.6,19.6-11.5c4.4-2.6,0.4-9.5-4-6.9c-6.5,3.8-13.1,7.6-19.6,11.5
	C587.8,444.4,591.8,451.3,596.2,448.7z M563.6,423.3c0,5.1,8,5.1,8,0c0-7,0-13.9,0-20.9c0-5.1-8-5.1-8,0
	C563.6,409.4,563.6,416.4,563.6,423.3z M533.8,451.2c-7.9-4.4-15.7-8.7-23.6-13.1c-4.5-2.5-8.5,4.4-4,6.9
	c7.9,4.4,15.7,8.7,23.6,13.1C534.2,460.5,538.3,453.7,533.8,451.2z M544.8,426.8c-4.1-6.4-8.2-12.7-12.4-19.1
	c-2.8-4.3-9.7-0.3-6.9,4c4.1,6.4,8.2,12.7,12.4,19.1C540.7,435.1,547.6,431.1,544.8,426.8z M573.6,499c0-0.4,0.5-1.7,1.4-3.5
	c0.1-0.2,0.2-0.3,0.2-0.5c0.1-0.2,0.2-0.3,0.2-0.5c0.1-0.2,0.2-0.4,0.3-0.5s0.1-0.3,0.2-0.4c0.1-0.2,0.2-0.4,0.3-0.7
	c0-0.1,0.1-0.2,0.1-0.3c0.7-1.3,1.4-2.7,2.2-4.3c0,0,0-0.1,0.1-0.1c0.2-0.4,0.4-0.8,0.6-1.2c0-0.1,0.1-0.2,0.1-0.3
	c0.2-0.4,0.4-0.7,0.5-1.1c0.1-0.1,0.1-0.3,0.2-0.4c0.2-0.4,0.4-0.7,0.5-1.1c0.1-0.1,0.1-0.2,0.2-0.3c0.2-0.5,0.4-0.9,0.7-1.4v-0.1
	c0.2-0.5,0.5-1,0.7-1.5c0-0.1,0.1-0.2,0.1-0.3c0.2-0.4,0.4-0.8,0.5-1.2c0.1-0.2,0.1-0.3,0.2-0.5c0.2-0.3,0.3-0.7,0.5-1
	c0.1-0.2,0.2-0.3,0.2-0.5c0.2-0.3,0.3-0.7,0.5-1c0.1-0.2,0.1-0.3,0.2-0.5c0.2-0.4,0.4-0.8,0.5-1.2c0-0.1,0.1-0.2,0.1-0.3
	c0.2-0.5,0.4-1,0.6-1.5c0-0.1,0.1-0.2,0.1-0.3c0.2-0.4,0.3-0.8,0.5-1.2c0.1-0.2,0.1-0.3,0.2-0.5c0.1-0.3,0.2-0.7,0.4-1
	c0.1-0.2,0.1-0.3,0.2-0.5c0.1-0.3,0.2-0.6,0.3-0.9c0.1-0.2,0.1-0.3,0.2-0.5c0.1-0.3,0.2-0.7,0.3-1c0-0.1,0.1-0.3,0.1-0.4
	c0.1-0.5,0.3-0.9,0.4-1.4c0-0.1,0-0.1,0.1-0.2c0.1-0.4,0.2-0.7,0.3-1.1c0-0.1,0.1-0.3,0.1-0.4c0.1-0.3,0.1-0.6,0.2-0.8
	c0-0.2,0.1-0.3,0.1-0.5c0-0.3,0.1-0.5,0.1-0.8c0-0.1,0-0.3,0.1-0.4c0-0.3,0.1-0.5,0.1-0.8c0-0.1,0-0.2,0-0.4c0-0.4,0-0.7,0-1
	c0-7.4-3.2-14.1-8.3-18.8c-0.6-0.5-1.2-1.1-1.9-1.6c-0.3-0.2-0.7-0.5-1-0.7c-0.7-0.5-1.4-0.9-2.1-1.3c-0.4-0.2-0.7-0.4-1.1-0.6
	c-1.1-0.5-2.3-1-3.5-1.4c-0.4-0.1-0.8-0.2-1.2-0.3c-2-0.5-4.2-0.8-6.3-0.8l0,0l0,0c-2.2,0-4.3,0.3-6.3,0.8c-0.4,0.1-0.8,0.2-1.2,0.3
	c-1.2,0.4-2.3,0.8-3.5,1.4c-0.4,0.2-0.7,0.4-1.1,0.6c-0.7,0.4-1.4,0.8-2.1,1.3c-0.3,0.2-0.7,0.5-1,0.7c-0.7,0.5-1.3,1-1.9,1.6
	c-5.1,4.6-8.3,11.3-8.3,18.8c0,0.3,0,0.7,0,1c0,0.1,0,0.2,0,0.3c0,0.3,0.1,0.5,0.1,0.8c0,0.1,0,0.3,0.1,0.4c0,0.3,0.1,0.5,0.1,0.8
	c0,0.1,0,0.3,0.1,0.4c0.1,0.4,0.1,0.7,0.2,1.1c0,0.1,0,0.1,0,0.2c0.1,0.4,0.2,0.8,0.3,1.3c0,0.1,0.1,0.3,0.1,0.4
	c0.1,0.3,0.2,0.6,0.3,1c0,0.2,0.1,0.3,0.1,0.5c0.1,0.3,0.2,0.6,0.3,1c0,0.1,0.1,0.3,0.1,0.4c0.1,0.4,0.3,0.8,0.4,1.1
	c0,0.1,0.1,0.2,0.1,0.3c0.2,0.5,0.4,1,0.5,1.4c0,0.1,0.1,0.2,0.1,0.3c0.1,0.4,0.3,0.8,0.4,1.1c0.1,0.2,0.1,0.3,0.2,0.5
	c0.1,0.3,0.3,0.7,0.4,1c0.1,0.2,0.1,0.3,0.2,0.5c0.2,0.4,0.3,0.8,0.5,1.2c0,0.1,0.1,0.2,0.1,0.3c0.2,0.5,0.4,1,0.7,1.5
	c0,0.1,0.1,0.2,0.1,0.2c0.2,0.4,0.4,0.8,0.6,1.2c0.1,0.1,0.1,0.3,0.2,0.4c0.2,0.4,0.3,0.7,0.5,1.1c0.1,0.1,0.1,0.3,0.2,0.4
	c0.2,0.4,0.4,0.8,0.6,1.2c0,0.1,0.1,0.2,0.1,0.3c0.5,1,0.9,1.9,1.4,2.9c0.1,0.1,0.1,0.2,0.2,0.3c0.2,0.4,0.4,0.8,0.6,1.1
	c0,0.1,0.1,0.2,0.1,0.3c0.2,0.4,0.4,0.8,0.6,1.2v0.1c0.8,1.5,1.5,2.9,2.1,4.2c0,0.1,0.1,0.2,0.1,0.3c0.1,0.2,0.2,0.5,0.4,0.7
	c0.1,0.1,0.1,0.2,0.2,0.4c0.1,0.3,0.3,0.6,0.4,0.8c1.1,2.2,1.8,3.8,1.8,4.3c0,5.2,4.2,9.4,9.4,9.4
	C569.4,508.4,573.6,504.2,573.6,499z M617.8,492c-7.9-4.4-15.7-8.7-23.6-13.1c-4.5-2.5-8.5,4.4-4,6.9c7.9,4.4,15.7,8.7,23.6,13.1
	C618.3,501.4,622.3,494.5,617.8,492z M1577,730c-3.2,3.6-6.3,5.4-8.4,2.6c-1.1-1.4-1.7-2.8-2.1-4.2l-1.4-0.1c0,0,0.5,21-16.6,3.1
	c0.6,5.3,0,10.1-3.9,11.1c-9.3,2.5-22.8,3.8-30-5.2c-0.7-0.9-1.4-2.2-1.9-3.7c-1.9,0.6-3.1,1.1-3.2,1.6
	c-0.9,2.5-32.5,43.8-32.5,43.8s-1.1,3.4,0.3,8.2c0.7,2.4,2.6,6.7,7.2,11c0.2,0.2,0.3,0.3,0.5,0.5c0.1,0.1,0.2,0.2,0.3,0.2
	c2.3,2,5.1,4,8.7,5.8l0,0c1.4,0.8,3,1.5,4.6,2.2l11-22.8l-1.6,37.4l38.1-7.6l14.8,67.7l-4.5,0.9l0.8,3.8l-30.9,6.1
	c2.5,2.1,4.9,3.8,6.2,4.3c0.5,0.2,0.8,0.3,1.1,0.5c22.1,2.3,49.8,3,55.1-6.7l-5.9-104.6c0,0,18.5-10.3,20.8-14.5
	C1605.6,767.9,1581.7,736.2,1577,730z"></path>
<path id="color_x5F_1" fill="#8b572a" d="M1602.2,1180.9c0,2.8-8,5.6-16.5,1.6s-36.9-14.7-38.7-18.2c-1.5-2.9,3.6-14.1,5.6-18.1
	c6.6,4.9,23.6,2.2,23.6,2.2l0.1-3l0,0C1576.2,1145.4,1602.2,1178.1,1602.2,1180.9z M1532.6,1168.2c0,0-16.1,9-25.8-1.3
	c0,0-8.1,16-6.3,19.6s30.2,14.2,38.7,18.2s16.5,1.3,16.5-1.6S1532.6,1168.2,1532.6,1168.2L1532.6,1168.2z M479.7,1139.9
	c0,0-0.7-0.7-1.6-1.5v0.6c0,0-9,11.5-22.5,3c0,0,0-0.1,0-0.4c-0.5,5.5-2.1,20.9,0.2,21.9c2.6,1.1,42.8,5.3,54.8-9
	C522.4,1140.3,479.7,1139.9,479.7,1139.9z M442.5,1106.5c-1.9,5.3-15.4,28.5-25.9,30.4s-16.9-0.8-17.3-2.6
	c-0.2-1.1,1.1-12.6,2.1-21.4v0.1c8.5,11,22-7,22.5-5.5c0,0.1,0.2-1.6,0.3-4.9C431.2,1102.5,443.9,1102.7,442.5,1106.5z M426.9,651.8
	c-7.5-0.1-6.8-6.8-9.9-14.4c-3.1-7.6-2.4-8.8,1.4-25.7s28.3-16.7,28.3-16.7s16.9-14,31.5-1.7c14.6,12.4,3.3,28.5,3.3,28.5
	c0.5,4.9-12.7,8.1-19.6,10.9c-6.9,2.7-2.1,18.2-2.1,18.2h-3.7l-0.1-5.5c0,0,1.9-5.9-9.3-11.7c-11.2-5.7-1,12.9-1,12.9
	C443.2,656.2,434.4,651.9,426.9,651.8z M491.7,653.8c-2.4,4.5-4.3-1.2-6,1.1s-4-0.1-3.1-6.1c1-5.9,9-4,9-4S494.1,649.3,491.7,653.8z
	 M1588.6,711.3c0,0-14,29.4-20.1,21.3c-5.9-7.9-0.3-15.6,0-16c11-8.2,12.4-26.9,12.2-37.8l0,0c-10.1,6.8-32.6-11.5-32.6-11.5
	c-3,7.7-9.7,10-11.1,12.1s-0.7,14.7-0.7,14.7c-3.8-2.1-2.3-12.2-2.3-12.2s-6.8-4.4-5.7,6.7c1.1,11.1,5.4,4.7,5.4,4.7l2.3,9.4
	c0.3,0.5,2.7,8.3,8.4,13.5l0,0c0,0,9.3,23.9,0,26.4s-22.8,3.8-30-5.2s-5.4-53.3,15.4-79.2c1.3-1.7,2.7-3.4,4.5-4.5
	c33-21.1,45.9,4.2,50.2,11.3C1596.9,685.5,1588.6,711.3,1588.6,711.3z"></path>
</svg>